# xmcd
#
# Track frame offsets: 
#        150
#        17824
#        34221
#        62383
#        77233
#        99921
#        116871
#        132132
#        150386
#        164732
#        184847
#        207967
#        223906
#
# Disc length: 3288 seconds
#
# Revision: 0
# Processed by: cddbd v1.5.2PL0 Copyright (c) Steve Scherf et al.
# Submitted via: ExactAudioCopyFreeDBPlugin 1.0
#
DISCID=b30cd60d
DTITLE=Solomon Burke - Nothing's Impossible
DYEAR=2010
DGENRE=Soul
TTITLE0=Oh What A Feeling
TTITLE1=Everything About You
TTITLE2=Dreams
TTITLE3=Nothing's Impossible
TTITLE4=It Must Be Love
TTITLE5=You Needed Me
TTITLE6=Say You Love Me Too
TTITLE7=You're Not Alone
TTITLE8=New Company
TTITLE9=When You're Not Here
TTITLE10=The Error Of My Ways
TTITLE11=I'm Leavin'
TTITLE12=It Must Be Love (Unplugged)
EXTD=
EXTT0=
EXTT1=
EXTT2=
EXTT3=
EXTT4=
EXTT5=
EXTT6=
EXTT7=
EXTT8=
EXTT9=
EXTT10=
EXTT11=
EXTT12=
PLAYORDER=
